<?xml version="1.0" standalone="no"?>
<!DOCTYPE svg PUBLIC "-//W3C//DTD SVG 20010904//EN"
 "http://www.w3.org/TR/2001/REC-SVG-20010904/DTD/svg10.dtd">
<svg version="1.0" xmlns="http://www.w3.org/2000/svg"
 width="512.000000pt" height="512.000000pt" viewBox="0 0 512.000000 512.000000"
 preserveAspectRatio="xMidYMid meet">

<g transform="translate(0.000000,512.000000) scale(0.100000,-0.100000)"
fill="#ffffff" stroke="none">
<path d="M3612 5051 c-213 -53 -415 -224 -490 -416 l-20 -50 -248 -2 -249 -3
-35 51 c-62 93 -187 169 -309 188 -276 44 -541 -183 -541 -464 0 -288 279
-519 558 -461 124 26 231 94 294 186 l33 50 249 -3 248 -2 20 -50 c11 -27 38
-77 60 -110 22 -33 41 -64 41 -70 0 -7 -275 -458 -368 -603 -1 -1 -41 7 -89
18 -63 15 -120 21 -204 21 -173 0 -281 -26 -436 -103 -43 -22 -79 -38 -80 -36
-2 2 -30 39 -63 83 l-61 81 26 43 c34 58 41 158 17 232 -25 73 -101 149 -174
174 -68 22 -169 17 -226 -13 -157 -81 -205 -280 -104 -428 62 -91 175 -132
305 -110 l40 7 63 -82 62 -81 -54 -57 c-97 -102 -187 -253 -187 -314 0 -43 26
-67 72 -67 41 0 55 14 93 92 94 194 291 351 510 408 100 26 269 29 367 6 463
-108 727 -589 569 -1037 -94 -265 -333 -465 -616 -514 -78 -13 -237 -6 -319
15 -333 85 -574 375 -593 715 -5 86 -9 102 -29 122 -29 29 -63 29 -98 2 -24
-19 -26 -26 -26 -92 1 -91 21 -202 53 -295 l26 -73 -226 -169 -226 -170 -31
21 c-38 25 -158 85 -186 92 -20 5 -20 11 -20 370 l0 365 49 32 c224 143 290
459 143 686 -107 165 -300 253 -490 225 -333 -50 -525 -407 -380 -710 35 -74
121 -170 186 -208 l42 -25 -2 -365 -3 -365 -62 -23 c-176 -67 -327 -209 -414
-390 -58 -120 -73 -190 -73 -335 -1 -149 14 -215 78 -345 106 -214 289 -360
521 -416 75 -18 110 -20 210 -16 214 9 367 77 520 231 72 72 100 109 137 181
73 144 83 186 83 365 0 122 -4 167 -19 213 -10 32 -16 60 -14 61 1 1 104 78
227 171 l223 169 27 -16 c233 -145 325 -173 561 -173 142 0 176 3 245 23 110
32 227 89 307 150 l68 51 317 -205 c255 -164 317 -208 315 -224 -2 -11 -6 -47
-10 -80 l-7 -62 -329 -124 c-182 -68 -335 -124 -340 -124 -6 0 -31 14 -56 30
-66 44 -158 70 -250 70 -188 0 -335 -94 -418 -268 -68 -143 -53 -313 40 -452
48 -72 132 -138 216 -171 71 -27 191 -36 264 -19 167 40 307 176 348 342 l11
43 337 127 336 126 55 -50 c108 -96 244 -159 376 -173 52 -6 63 -4 88 15 19
15 27 30 27 54 0 48 -31 70 -120 84 -285 45 -477 323 -419 604 30 143 148 293
279 356 386 183 813 -162 715 -577 -29 -122 -112 -241 -216 -307 -58 -37 -69
-51 -69 -90 0 -34 37 -74 69 -74 31 0 127 64 187 125 316 322 230 850 -172
1053 -181 91 -389 93 -576 6 -43 -21 -83 -43 -89 -51 -6 -7 -17 -13 -24 -13
-8 0 -595 372 -622 394 -2 2 9 47 24 102 22 83 26 122 28 243 l1 144 175 42
c152 37 175 41 184 28 68 -103 140 -160 239 -188 173 -50 365 42 444 213 22
47 26 71 27 142 0 172 -88 302 -243 361 -83 31 -214 24 -293 -15 -112 -56
-194 -170 -207 -289 l-7 -62 -170 -42 c-93 -23 -174 -42 -180 -43 -5 0 -26 35
-45 77 -35 78 -106 191 -158 252 l-29 34 190 304 c150 239 193 303 206 297 37
-16 227 -16 300 0 126 26 289 113 310 165 21 50 -14 101 -69 101 -12 0 -41
-14 -66 -31 -226 -155 -525 -128 -719 66 -116 116 -168 240 -168 400 0 160 52
284 168 400 110 110 241 165 395 165 252 0 460 -156 546 -410 27 -79 24 -243
-5 -324 -37 -104 -20 -159 49 -159 42 0 64 24 89 98 63 192 49 368 -42 555
-33 69 -59 103 -132 176 -76 78 -104 98 -185 138 -52 25 -126 53 -165 61 -94
20 -233 18 -323 -4z m-1349 -385 c243 -57 329 -360 153 -537 -154 -156 -415
-110 -513 89 -24 48 -28 69 -28 137 0 93 21 148 80 214 47 52 88 77 156 95 68
19 81 19 152 2z m802 -311 l0 -75 -202 0 -203 0 0 75 0 75 203 0 202 0 0 -75z
m386 -635 c5 0 9 -5 9 -11 0 -6 -77 -134 -171 -284 l-170 -273 -64 39 -63 40
160 257 c88 141 166 267 174 279 l14 22 51 -35 c28 -19 55 -34 60 -34z m-1690
-65 c88 -46 91 -184 5 -240 -35 -23 -112 -22 -144 2 -65 48 -85 131 -47 189
38 58 124 81 186 49z m-869 -355 c92 -26 195 -129 223 -224 17 -57 19 -154 5
-206 -5 -19 -24 -60 -42 -90 -111 -184 -369 -218 -531 -70 -180 164 -141 456
75 566 87 44 172 52 270 24z m3426 -325 c119 -79 135 -244 33 -345 -145 -144
-382 -48 -382 153 0 94 46 170 126 209 62 29 166 21 223 -17z m-3458 -831 l0
-324 -75 0 -75 0 0 324 0 325 75 0 75 0 0 -325z m2823 -423 l268 -173 -24 -32
c-13 -17 -31 -45 -40 -63 l-17 -32 -290 187 c-159 103 -288 192 -286 199 3 6
21 34 42 62 34 48 38 51 58 38 11 -7 141 -91 289 -186z m-1834 57 c8 -11 10
-22 5 -27 -5 -5 -92 -70 -194 -146 -102 -76 -190 -142 -196 -146 -7 -6 -27 12
-57 50 l-46 60 206 154 207 155 30 -41 c17 -22 37 -48 45 -59z m-919 -124
c220 -51 408 -237 465 -459 20 -77 20 -233 0 -310 -58 -224 -245 -408 -470
-461 -101 -23 -257 -15 -347 18 -249 93 -411 306 -425 562 -17 302 180 571
477 650 72 19 219 20 300 0z m2914 -754 c14 -35 22 -68 18 -72 -9 -9 -562
-218 -577 -218 -9 0 -60 129 -53 135 4 3 582 222 584 221 1 -1 13 -30 28 -66z
m-886 -110 c71 -36 115 -83 150 -158 21 -47 24 -64 20 -136 -5 -96 -28 -147
-94 -212 -119 -115 -314 -112 -433 7 -57 58 -85 120 -89 204 -7 130 55 237
170 294 52 27 72 31 138 31 66 0 86 -4 138 -30z"/>
</g>
</svg>
