<?xml version="1.0" standalone="no"?>
<!DOCTYPE svg PUBLIC "-//W3C//DTD SVG 20010904//EN"
 "http://www.w3.org/TR/2001/REC-SVG-20010904/DTD/svg10.dtd">
<svg version="1.0" xmlns="http://www.w3.org/2000/svg"
 width="512.000000pt" height="512.000000pt" viewBox="0 0 512.000000 512.000000"
 preserveAspectRatio="xMidYMid meet">

<g transform="translate(0.000000,512.000000) scale(0.100000,-0.100000)"
fill="#ffffff" stroke="none">
<path d="M403 4932 c-257 -92 -333 -403 -147 -602 64 -69 134 -101 236 -109
l81 -6 118 -249 c66 -137 119 -254 119 -260 0 -6 -146 -265 -325 -575 -179
-311 -325 -573 -325 -584 0 -10 146 -273 325 -582 179 -310 325 -569 325 -574
0 -6 -45 -101 -100 -210 l-99 -199 -88 -4 c-69 -3 -100 -9 -145 -30 -73 -34
-142 -103 -176 -176 -24 -50 -27 -69 -27 -157 0 -91 3 -105 29 -158 36 -71
108 -140 184 -175 49 -23 70 -27 147 -27 82 0 97 3 156 32 79 39 140 102 177
181 23 49 27 70 27 152 0 84 -3 102 -28 152 -16 32 -49 79 -75 105 l-46 48
100 195 101 195 466 3 c440 2 467 1 467 -15 1 -67 109 -197 198 -239 62 -30
176 -42 234 -26 l36 10 248 -430 c136 -236 255 -433 265 -438 29 -16 1391 -13
1411 2 24 19 698 1192 698 1214 0 11 -114 217 -254 459 l-254 440 39 43 c60
69 82 138 77 247 -4 94 -21 141 -75 213 l-24 32 241 418 c133 229 244 428 246
442 6 26 2 32 -467 845 -150 258 -222 373 -239 382 -20 10 -172 12 -707 10
-667 -2 -683 -2 -702 -22 -11 -11 -128 -207 -260 -435 -191 -331 -243 -414
-258 -412 -10 2 -54 4 -98 5 -100 1 -174 -26 -243 -88 -47 -42 -112 -146 -112
-179 0 -14 -44 -16 -467 -16 l-468 1 -113 237 c-62 130 -112 240 -112 244 0 4
24 31 53 60 29 29 63 75 76 102 87 186 9 404 -176 492 -77 36 -195 43 -270 16z
m203 -151 c94 -43 146 -150 120 -249 -26 -102 -103 -162 -207 -162 -176 1
-274 183 -180 332 54 85 174 121 267 79z m3597 -38 c70 -111 597 -1033 597
-1043 0 -7 -100 -186 -222 -397 l-222 -384 -40 8 c-66 13 -167 8 -221 -10
-104 -36 -200 -136 -231 -243 l-15 -54 -449 0 -450 0 -17 26 c-9 15 -115 196
-234 403 l-217 376 29 33 c16 18 41 56 56 85 25 47 28 62 28 152 0 87 -3 107
-26 155 -14 31 -40 72 -57 91 l-31 36 232 401 231 402 618 0 618 0 23 -37z
m-1918 -834 c88 -22 165 -120 165 -208 0 -116 -97 -211 -215 -211 -93 0 -158
41 -196 125 -62 136 35 292 189 304 7 1 33 -4 57 -10z m-409 -306 c14 -49 59
-124 97 -163 81 -83 237 -130 338 -102 l36 10 228 -396 c126 -217 228 -400
228 -406 0 -10 -437 -772 -452 -788 -3 -3 -30 -2 -60 4 -66 12 -153 -1 -220
-34 -73 -35 -154 -123 -181 -196 l-23 -62 -461 2 -461 3 -297 515 c-163 283
-302 525 -309 537 -10 19 20 77 297 557 l309 536 463 0 c432 0 463 -1 468 -17z
m2444 -848 c67 -34 103 -88 108 -165 2 -32 -1 -74 -8 -94 -49 -149 -249 -190
-357 -73 -52 57 -70 119 -54 191 31 139 181 207 311 141z m-437 -339 c35 -77
98 -140 176 -179 62 -30 72 -32 173 -32 l108 0 231 -399 c126 -220 231 -402
232 -406 1 -3 -137 -248 -307 -543 l-310 -537 -623 2 -624 3 -230 398 -230
398 37 41 c62 69 79 118 79 233 0 111 -13 153 -76 235 l-35 45 230 398 230
397 457 0 458 0 24 -54z m-1552 -833 c156 -80 155 -298 -2 -377 -147 -73 -309
26 -309 189 0 164 163 262 311 188z m-1703 -772 c135 -69 164 -240 59 -345
-83 -82 -202 -87 -293 -13 -118 98 -91 287 51 361 42 22 137 21 183 -3z"/>
<path d="M3087 4508 c-19 -15 -297 -496 -297 -515 0 -27 24 -62 51 -73 54 -23
72 -2 207 233 l126 217 390 0 391 0 193 -335 193 -336 -120 -208 c-67 -114
-121 -218 -121 -230 0 -31 43 -71 78 -71 17 0 37 9 49 23 38 41 273 461 273
487 0 26 -414 755 -453 798 l-20 22 -462 0 c-353 0 -465 -3 -478 -12z"/>
<path d="M1083 3348 c-40 -44 -453 -774 -453 -801 0 -37 440 -798 471 -815 18
-9 96 -12 312 -10 l289 3 19 24 c24 30 24 72 0 102 -19 24 -20 24 -283 27
l-263 3 -66 117 c-37 64 -123 214 -192 333 l-125 217 193 333 193 334 258 3
c249 2 259 3 281 24 29 27 31 80 3 108 -19 19 -33 20 -318 20 -297 0 -299 0
-319 -22z"/>
<path d="M4102 1930 c-40 -38 -30 -67 108 -307 l131 -226 -110 -191 c-60 -105
-147 -256 -193 -336 l-84 -145 -390 -2 -389 -3 -115 202 c-135 237 -151 258
-191 258 -35 0 -79 -39 -79 -70 0 -28 276 -506 303 -525 18 -13 89 -15 467
-15 333 0 451 3 469 13 32 16 470 770 470 811 1 31 -266 507 -301 539 -27 23
-69 22 -96 -3z"/>
</g>
</svg>
