<?xml version="1.0" standalone="no"?>
<!DOCTYPE svg PUBLIC "-//W3C//DTD SVG 20010904//EN"
 "http://www.w3.org/TR/2001/REC-SVG-20010904/DTD/svg10.dtd">
<svg version="1.0" xmlns="http://www.w3.org/2000/svg"
 width="512.000000pt" height="512.000000pt" viewBox="0 0 512.000000 512.000000"
 preserveAspectRatio="xMidYMid meet">

<g transform="translate(0.000000,512.000000) scale(0.100000,-0.100000)"
fill="#ffffff" stroke="none">
<path d="M3266 5088 c-17 -18 -137 -216 -266 -440 l-234 -408 -451 0 -451 0
-142 240 c-79 132 -153 247 -165 255 -12 8 -37 15 -55 15 -45 0 -102 -55 -102
-97 0 -20 45 -105 136 -259 75 -126 139 -236 144 -244 6 -11 -57 -129 -214
-400 l-222 -385 -291 -5 c-291 -5 -291 -5 -317 -29 -48 -45 -40 -132 13 -161
12 -6 128 -10 304 -10 l284 0 195 -337 195 -338 -439 -5 -440 -5 -26 -30 c-48
-53 -542 -920 -542 -950 0 -17 88 -179 246 -453 186 -323 244 -430 237 -442
-102 -165 -273 -463 -278 -482 -13 -53 47 -118 108 -118 13 0 35 9 48 19 14
10 87 125 164 255 l140 236 455 -3 454 -2 136 -229 c75 -126 149 -239 164
-252 15 -13 38 -24 52 -24 33 0 81 25 94 49 26 50 13 82 -126 316 -75 125
-138 234 -141 242 -3 7 102 198 232 425 131 226 242 425 248 443 12 39 23 17
-227 449 -108 186 -196 341 -196 343 0 1 175 3 389 3 l389 0 216 -375 c119
-206 219 -381 222 -389 3 -8 -56 -118 -134 -248 -76 -129 -141 -245 -145 -258
-14 -54 47 -120 111 -120 38 0 72 44 210 275 l138 230 455 3 455 2 139 -236
c77 -130 151 -245 164 -255 13 -11 35 -19 48 -19 61 0 121 65 108 118 -3 14
-69 132 -146 263 l-140 238 241 418 c133 230 244 432 247 450 5 28 -27 87
-241 459 -136 235 -245 432 -242 439 2 6 111 195 241 421 148 255 239 422 241
444 5 31 -24 86 -263 498 -181 312 -277 468 -293 478 -20 11 -127 13 -563 14
l-539 0 -32 -32z m1250 -562 l225 -389 -224 -386 -223 -386 -453 0 -453 0
-220 380 c-121 209 -221 385 -221 391 0 6 100 184 223 397 l223 387 449 -2
450 -3 224 -389z m-1748 -498 c13 -17 420 -722 434 -752 9 -21 -14 -67 -213
-410 l-222 -386 -451 0 -451 0 -215 371 c-118 204 -219 380 -224 390 -7 14 39
100 209 396 120 208 222 384 228 391 7 9 110 12 452 12 342 0 445 -3 453 -12z
m1744 -1255 c122 -214 222 -393 222 -400 -2 -16 -377 -663 -385 -663 -4 0 -57
86 -119 190 -61 105 -123 199 -137 210 -51 40 -131 11 -153 -55 -14 -42 -13
-45 133 -290 l96 -160 -386 -3 c-213 -1 -390 1 -394 5 -14 14 -442 758 -442
768 0 6 100 185 223 398 l224 387 447 0 447 0 224 -387z m-2536 -893 c159
-276 220 -389 214 -400 -5 -8 -105 -181 -223 -385 l-214 -370 -454 -2 -454 -3
-219 381 c-120 209 -219 386 -220 392 0 7 98 184 219 394 l220 383 454 -3 455
-2 222 -385z"/>
<path d="M3804 2471 c-59 -25 -82 -106 -43 -155 57 -73 179 -32 179 60 0 64
-79 119 -136 95z"/>
<path d="M2257 5079 c-82 -20 -137 -68 -157 -137 -13 -48 -13 -356 1 -405 48
-175 353 -192 430 -24 28 62 25 103 -10 138 -50 50 -141 30 -141 -31 0 -22
-41 -70 -60 -70 -6 0 -22 11 -35 25 -24 23 -25 29 -25 165 0 137 1 142 25 166
19 18 31 23 48 19 28 -9 47 -33 47 -60 0 -57 96 -76 144 -29 61 61 10 185 -94
227 -48 20 -127 27 -173 16z"/>
<path d="M560 4400 c-19 -19 -20 -33 -20 -314 l0 -293 26 -28 c22 -24 31 -27
70 -22 72 8 74 13 74 153 l0 124 64 0 64 0 3 -121 c4 -113 6 -122 28 -140 34
-28 96 -25 126 6 l25 24 0 289 c0 278 -1 290 -21 316 -17 22 -29 26 -68 26
-74 0 -85 -19 -89 -146 l-4 -104 -64 0 -64 0 0 108 c0 93 -3 111 -18 125 -27
25 -106 23 -132 -3z"/>
<path d="M254 3350 c-30 -12 -64 -58 -64 -87 0 -32 26 -80 49 -93 39 -20 91
-12 122 19 76 77 -7 202 -107 161z"/>
<path d="M3780 1171 c-48 -15 -88 -40 -113 -71 -39 -46 -50 -115 -46 -300 4
-159 5 -167 31 -212 84 -142 344 -130 410 19 18 40 19 63 16 242 -3 195 -3
198 -30 238 -35 52 -99 84 -181 89 -34 2 -73 0 -87 -5z m110 -171 c18 -18 20
-33 20 -168 0 -134 -2 -151 -19 -166 -11 -10 -31 -16 -47 -14 -47 5 -55 35
-52 189 3 118 6 140 22 158 24 26 50 27 76 1z"/>
</g>
</svg>
